<svg width="145" height="82" viewBox="0 0 145 82" fill="pink" xmlns="http://www.w3.org/2000/svg">
<path d="M75.92 24.8H80.888V50H77.108L66.308 34.592V50H61.34V24.8H65.12L75.92 40.172V24.8ZM100.683 47.768C98.8347 49.592 96.5787 50.504 93.9147 50.504C91.2507 50.504 88.9947 49.592 87.1467 47.768C85.3227 45.92 84.4107 43.664 84.4107 41C84.4107 38.336 85.3227 36.092 87.1467 34.268C88.9947 32.42 91.2507 31.496 93.9147 31.496C96.5787 31.496 98.8347 32.42 100.683 34.268C102.531 36.092 103.455 38.336 103.455 41C103.455 43.664 102.531 45.92 100.683 47.768ZM90.4227 44.564C91.3587 45.5 92.5227 45.968 93.9147 45.968C95.3067 45.968 96.4707 45.5 97.4067 44.564C98.3427 43.628 98.8107 42.44 98.8107 41C98.8107 39.56 98.3427 38.372 97.4067 37.436C96.4707 36.5 95.3067 36.032 93.9147 36.032C92.5227 36.032 91.3587 36.5 90.4227 37.436C89.5107 38.372 89.0547 39.56 89.0547 41C89.0547 42.44 89.5107 43.628 90.4227 44.564ZM117.863 32H122.975L116.135 50H110.843L104.003 32H109.115L113.471 44.6L117.863 32ZM138.191 32H142.835V50H138.191V47.876C136.799 49.628 134.843 50.504 132.323 50.504C129.923 50.504 127.859 49.592 126.131 47.768C124.427 45.92 123.575 43.664 123.575 41C123.575 38.336 124.427 36.092 126.131 34.268C127.859 32.42 129.923 31.496 132.323 31.496C134.843 31.496 136.799 32.372 138.191 34.124V32ZM129.623 44.672C130.559 45.608 131.747 46.076 133.187 46.076C134.627 46.076 135.815 45.608 136.751 44.672C137.711 43.712 138.191 42.488 138.191 41C138.191 39.512 137.711 38.3 136.751 37.364C135.815 36.404 134.627 35.924 133.187 35.924C131.747 35.924 130.559 36.404 129.623 37.364C128.687 38.3 128.219 39.512 128.219 41C128.219 42.488 128.687 43.712 129.623 44.672Z" fill="white"/>
<path d="M42.176 53.304C37.6107 57.784 32 60.024 25.344 60.024C18.688 60.024 13.056 57.784 8.448 53.304C3.88267 48.7813 1.6 43.2133 1.6 36.6C1.6 29.9867 3.88267 24.44 8.448 19.96C13.056 15.4373 18.688 13.176 25.344 13.176C32 13.176 37.6107 15.4373 42.176 19.96C46.784 24.44 49.088 29.9867 49.088 36.6C49.088 43.2133 46.784 48.7813 42.176 53.304ZM17.472 44.408C19.5627 46.456 22.1867 47.48 25.344 47.48C28.5013 47.48 31.104 46.456 33.152 44.408C35.2427 42.3173 36.288 39.7147 36.288 36.6C36.288 33.4853 35.2427 30.904 33.152 28.856C31.104 26.7653 28.5013 25.72 25.344 25.72C22.1867 25.72 19.5627 26.7653 17.472 28.856C15.424 30.904 14.4 33.4853 14.4 36.6C14.4 39.7147 15.424 42.3173 17.472 44.408Z" fill="white"/>
</svg>
