<svg width="12" height="12" viewBox="0 0 12 12" fill="none" xmlns="http://www.w3.org/2000/svg">
<path d="M10.6665 5.33317H6.6665V1.33317C6.6665 1.15636 6.59627 0.98679 6.47124 0.861766C6.34622 0.736742 6.17665 0.666504 5.99984 0.666504C5.82303 0.666504 5.65346 0.736742 5.52843 0.861766C5.40341 0.98679 5.33317 1.15636 5.33317 1.33317V5.33317H1.33317C1.15636 5.33317 0.98679 5.40341 0.861766 5.52843C0.736742 5.65346 0.666504 5.82303 0.666504 5.99984C0.666504 6.17665 0.736742 6.34622 0.861766 6.47124C0.98679 6.59627 1.15636 6.6665 1.33317 6.6665H5.33317V10.6665C5.33317 10.8433 5.40341 11.0129 5.52843 11.1379C5.65346 11.2629 5.82303 11.3332 5.99984 11.3332C6.17665 11.3332 6.34622 11.2629 6.47124 11.1379C6.59627 11.0129 6.6665 10.8433 6.6665 10.6665V6.6665H10.6665C10.8433 6.6665 11.0129 6.59627 11.1379 6.47124C11.2629 6.34622 11.3332 6.17665 11.3332 5.99984C11.3332 5.82303 11.2629 5.65346 11.1379 5.52843C11.0129 5.40341 10.8433 5.33317 10.6665 5.33317Z" fill="white"/>
</svg>
